<?xml version="1.0" encoding="utf-8"?><svg viewBox="0 0 30 30" xmlns="http://www.w3.org/2000/svg" xmlns:xlink="http://www.w3.org/1999/xlink"><style>:root>svg{display:none}:root>svg:target{display:block}</style><svg viewBox="0 0 24 24" class="icon-add" id="icon-add" xmlns="http://www.w3.org/2000/svg"><path class="secondary" fill-rule="evenodd" d="M17 11a1 1 0 010 2h-4v4a1 1 0 01-2 0v-4H7a1 1 0 010-2h4V7a1 1 0 012 0v4h4z"/></svg><svg viewBox="0 0 24 24" class="icon-add-square" id="icon-add-square" xmlns="http://www.w3.org/2000/svg"><rect width="18" height="18" x="3" y="3" fill="var(--primary)" rx="2"/><path class="secondary" d="M13 11h4a1 1 0 010 2h-4v4a1 1 0 01-2 0v-4H7a1 1 0 010-2h4V7a1 1 0 012 0v4z"/></svg><svg viewBox="0 0 24 24" class="icon-calendar-date" id="icon-calendar-date" xmlns="http://www.w3.org/2000/svg"><path fill="var(--primary)" d="M5 4h14a2 2 0 012 2v13a2 2 0 01-2 2H5a2 2 0 01-2-2V6c0-1.1.9-2 2-2zm0 5v10h14V9H5z"/><path class="secondary" d="M13 13h3v3h-3v-3zM7 2a1 1 0 011 1v3a1 1 0 11-2 0V3a1 1 0 011-1zm10 0a1 1 0 011 1v3a1 1 0 01-2 0V3a1 1 0 011-1z"/></svg><svg viewBox="0 0 24 24" class="icon-chart" id="icon-chart" xmlns="http://www.w3.org/2000/svg"><path fill="var(--primary)" d="M5 3h14a2 2 0 012 2v14a2 2 0 01-2 2H5a2 2 0 01-2-2V5c0-1.1.9-2 2-2zm11 4a1 1 0 00-1 1v8a1 1 0 002 0V8a1 1 0 00-1-1z"/><path class="secondary" d="M8 11a1 1 0 011 1v4a1 1 0 01-2 0v-4a1 1 0 011-1zm4-2a1 1 0 011 1v6a1 1 0 01-2 0v-6a1 1 0 011-1z"/></svg><svg viewBox="0 0 24 24" class="icon-cheveron-down" id="icon-cheveron-down" xmlns="http://www.w3.org/2000/svg"><path class="secondary" fill-rule="evenodd" d="M15.3 10.3a1 1 0 011.4 1.4l-4 4a1 1 0 01-1.4 0l-4-4a1 1 0 011.4-1.4l3.3 3.29 3.3-3.3z"/></svg><svg viewBox="0 0 24 24" class="icon-cloud-download" id="icon-cloud-download" xmlns="http://www.w3.org/2000/svg"><path fill="var(--primary)" d="M15 15v-3a3 3 0 00-6 0v3H6a4 4 0 01-.99-7.88 5.5 5.5 0 0110.86-.82A4.49 4.49 0 0122 10.5a4.5 4.5 0 01-4.5 4.5H15z"/><path class="secondary" d="M11 18.59V12a1 1 0 012 0v6.59l1.3-1.3a1 1 0 011.4 1.42l-3 3a1 1 0 01-1.4 0l-3-3a1 1 0 011.4-1.42l1.3 1.3z"/></svg><svg viewBox="0 0 24 24" class="icon-cog" id="icon-cog" xmlns="http://www.w3.org/2000/svg"><path fill="var(--primary)" d="M6.8 3.45c.87-.52 1.82-.92 2.83-1.17a2.5 2.5 0 004.74 0c1.01.25 1.96.65 2.82 1.17a2.5 2.5 0 003.36 3.36c.52.86.92 1.8 1.17 2.82a2.5 2.5 0 000 4.74c-.25 1.01-.65 1.96-1.17 2.82a2.5 2.5 0 00-3.36 3.36c-.86.52-1.8.92-2.82 1.17a2.5 2.5 0 00-4.74 0c-1.01-.25-1.96-.65-2.82-1.17a2.5 2.5 0 00-3.36-3.36 9.94 9.94 0 01-1.17-2.82 2.5 2.5 0 000-4.74c.25-1.01.65-1.96 1.17-2.82a2.5 2.5 0 003.36-3.36zM12 16a4 4 0 100-8 4 4 0 000 8z"/><circle cx="12" cy="12" r="2" class="secondary"/></svg><svg viewBox="0 0 24 24" class="icon-door-exit" id="icon-door-exit" xmlns="http://www.w3.org/2000/svg"><path fill="var(--primary)" d="M11 4h3a1 1 0 011 1v3a1 1 0 01-2 0V6h-2v12h2v-2a1 1 0 012 0v3a1 1 0 01-1 1h-3v1a1 1 0 01-1.27.96l-6.98-2A1 1 0 012 19V5a1 1 0 01.75-.97l6.98-2A1 1 0 0111 3v1z"/><path class="secondary" d="M18.59 11l-1.3-1.3c-.94-.94.47-2.35 1.42-1.4l3 3a1 1 0 010 1.4l-3 3c-.95.95-2.36-.46-1.42-1.4l1.3-1.3H14a1 1 0 010-2h4.59z"/></svg><svg viewBox="0 0 24 24" class="icon-edit" id="icon-edit" xmlns="http://www.w3.org/2000/svg"><path fill="var(--primary)" d="M4 14a1 1 0 01.3-.7l11-11a1 1 0 011.4 0l3 3a1 1 0 010 1.4l-11 11a1 1 0 01-.7.3H5a1 1 0 01-1-1v-3z"/><rect width="20" height="2" x="2" y="20" class="secondary" rx="1"/></svg><svg viewBox="0 0 24 24" class="icon-help" id="icon-help" xmlns="http://www.w3.org/2000/svg"><path fill="var(--primary)" d="M12 22a10 10 0 110-20 10 10 0 010 20z"/><path class="secondary" d="M12 19.5a1.5 1.5 0 110-3 1.5 1.5 0 010 3zm1-5.5a1 1 0 01-2 0v-1.41a1 1 0 01.55-.9L14 10.5c.64-.42 1-.97 1-1.5 0-1.03-1.3-2-3-2-1.35 0-2.49.62-2.87 1.43a1 1 0 01-1.8-.86C8.05 6.01 9.92 5 12 5c2.7 0 5 1.72 5 4 0 1.3-.76 2.46-2.05 3.24L13 13.2v.8z"/></svg><svg viewBox="0 0 30 30" fill="none" id="icon-hotel" xmlns="http://www.w3.org/2000/svg"><path d="M13.196 5.983c0-1.841-1.476-3.338-3.29-3.338-1.816 0-3.293 1.497-3.293 3.338 0 1.84 1.477 3.338 3.292 3.338 1.815 0 3.291-1.497 3.291-3.338zm-4.752 0c0-.817.656-1.481 1.461-1.481.806 0 1.46.664 1.46 1.48 0 .818-.654 1.482-1.46 1.482a1.473 1.473 0 01-1.46-1.481z" fill="#A4A1A1"/><path d="M19.81 9.181h-4.88c.586-1.086.994-2.165.994-3.074C15.924 2.74 13.224 0 9.905 0s-6.02 2.74-6.02 6.107c0 .91.41 1.988.995 3.074H0V29.71H26.375c2 0 3.625-1.65 3.625-3.677V14.384l-10.19-.001V9.18zM9.906 1.858c2.309 0 4.188 1.906 4.188 4.25 0 1.606-2.35 4.794-4.188 6.87-1.838-2.076-4.188-5.264-4.188-6.87 0-2.344 1.879-4.25 4.188-4.25zm8.075 25.994H1.83V11.04h4.07v-.185c1.388 2.043 3.037 3.809 3.345 4.132l.66.694.66-.694c.307-.324 1.955-2.088 3.343-4.13v.182h4.07v16.814zm10.19-11.61v9.79c0 1.004-.805 1.82-1.794 1.82H19.81V16.241l8.359.001z" fill="#A4A1A1"/><path d="M8.01 22.614H6.18v3.42h1.83v-3.42zM8.01 15.775H6.18v3.42h1.83v-3.42zM13.63 22.614h-1.832v3.42h1.831v-3.42zM13.63 15.775h-1.832v3.42h1.831v-3.42zM25.847 18.796h-3.58v1.857h3.58v-1.857z" fill="#fff"/></svg><svg viewBox="0 0 24 24" class="icon-key" id="icon-key" xmlns="http://www.w3.org/2000/svg"><path fill="var(--primary)" d="M8.23 10.77a7.01 7.01 0 115 5L11 18H9v2H7v2.03H2V17l6.23-6.23zM17 9a2 2 0 100-4 2 2 0 000 4z"/><path class="secondary" d="M6.2 18.7a1 1 0 11-1.4-1.4l4-4a1 1 0 111.4 1.4l-4 4z"/></svg><svg viewBox="0 0 24 24" class="icon-mail" id="icon-mail" xmlns="http://www.w3.org/2000/svg"><path fill="var(--primary)" d="M22 8.62V18a2 2 0 01-2 2H4a2 2 0 01-2-2V8.62l9.55 4.77a1 1 0 00.9 0L22 8.62z"/><path class="secondary" d="M12 11.38l-10-5V6c0-1.1.9-2 2-2h16a2 2 0 012 2v.38l-10 5z"/></svg><svg viewBox="0 0 24 24" class="icon-mood-happy" id="icon-mood-happy" xmlns="http://www.w3.org/2000/svg"><circle cx="12" cy="12" r="10" fill="var(--primary)"/><path class="secondary" d="M6.8 14h10.4a1 1 0 01.86 1.5 7 7 0 01-12.12 0A1 1 0 016.8 14zm1.7-3a1.5 1.5 0 110-3 1.5 1.5 0 010 3zm7 0a1.5 1.5 0 110-3 1.5 1.5 0 010 3z"/></svg><svg viewBox="0 0 24 24" class="icon-mood-sad" id="icon-mood-sad" xmlns="http://www.w3.org/2000/svg"><circle cx="12" cy="12" r="10" fill="var(--primary)"/><path class="secondary" d="M16.47 18H7.53a1 1 0 01-.75-1.67 6.98 6.98 0 0110.44 0 1 1 0 01-.75 1.67zM8.5 11a1.5 1.5 0 110-3 1.5 1.5 0 010 3zm7 0a1.5 1.5 0 110-3 1.5 1.5 0 010 3z"/></svg><svg viewBox="0 0 24 24" class="icon-notification" id="icon-notification" xmlns="http://www.w3.org/2000/svg"><circle cx="12" cy="19" r="3" class="secondary"/><path fill="var(--primary)" d="M10.02 4.28L10 4a2 2 0 113.98.28A7 7 0 0119 11v5a1 1 0 001 1 1 1 0 010 2H4a1 1 0 010-2 1 1 0 001-1v-5a7 7 0 015.02-6.72z"/></svg><svg viewBox="0 0 24 24" class="icon-search" id="icon-search" xmlns="http://www.w3.org/2000/svg"><circle cx="10" cy="10" r="7" fill="var(--primary)"/><path class="secondary" d="M16.32 14.9l1.1 1.1c.4-.02.83.13 1.14.44l3 3a1.5 1.5 0 01-2.12 2.12l-3-3a1.5 1.5 0 01-.44-1.14l-1.1-1.1a8 8 0 111.41-1.41zM10 16a6 6 0 100-12 6 6 0 000 12z"/></svg><svg viewBox="0 0 24 24" class="icon-time" id="icon-time" xmlns="http://www.w3.org/2000/svg"><circle cx="12" cy="12" r="10" fill="var(--primary)"/><path class="secondary" d="M13 11.59l3.2 3.2a1 1 0 01-1.4 1.42l-3.5-3.5A1 1 0 0111 12V7a1 1 0 012 0v4.59z"/></svg><svg viewBox="0 0 24 24" class="icon-trash" id="icon-trash" xmlns="http://www.w3.org/2000/svg"><path fill="var(--primary)" d="M5 5h14l-.89 15.12a2 2 0 01-2 1.88H7.9a2 2 0 01-2-1.88L5 5zm5 5a1 1 0 00-1 1v6a1 1 0 002 0v-6a1 1 0 00-1-1zm4 0a1 1 0 00-1 1v6a1 1 0 002 0v-6a1 1 0 00-1-1z"/><path class="secondary" d="M8.59 4l1.7-1.7A1 1 0 0111 2h2a1 1 0 01.7.3L15.42 4H19a1 1 0 010 2H5a1 1 0 110-2h3.59z"/></svg><svg viewBox="0 0 24 24" class="icon-user" id="icon-user" xmlns="http://www.w3.org/2000/svg"><path fill="var(--primary)" d="M12 12a5 5 0 110-10 5 5 0 010 10z"/><path class="secondary" d="M21 20v-1a5 5 0 00-5-5H8a5 5 0 00-5 5v1c0 1.1.9 2 2 2h14a2 2 0 002-2z"/></svg><svg viewBox="0 0 24 24" class="icon-wallet" id="icon-wallet" xmlns="http://www.w3.org/2000/svg"><path fill="var(--primary)" d="M2 5c0 1.1.9 2 2 2h16a2 2 0 012 2v10a2 2 0 01-2 2H4a2 2 0 01-2-2V5zm16 11a2 2 0 100-4 2 2 0 000 4z"/><path class="secondary" d="M4 3h11a2 2 0 012 2v2H4a2 2 0 110-4z"/></svg></svg>