<?xml version="1.0" encoding="utf-8"?><svg viewBox="0 0 30 30" fill="none" xmlns="http://www.w3.org/2000/svg" width="30" height="30"><path d="M13.196 5.983c0-1.841-1.476-3.338-3.29-3.338-1.816 0-3.293 1.497-3.293 3.338 0 1.84 1.477 3.338 3.292 3.338 1.815 0 3.291-1.497 3.291-3.338zm-4.752 0c0-.817.656-1.481 1.461-1.481.806 0 1.46.664 1.46 1.48 0 .818-.654 1.482-1.46 1.482a1.473 1.473 0 01-1.46-1.481z" fill="#A4A1A1"/><path d="M19.81 9.181h-4.88c.586-1.086.994-2.165.994-3.074C15.924 2.74 13.224 0 9.905 0s-6.02 2.74-6.02 6.107c0 .91.41 1.988.995 3.074H0V29.71H26.375c2 0 3.625-1.65 3.625-3.677V14.384l-10.19-.001V9.18zM9.906 1.858c2.309 0 4.188 1.906 4.188 4.25 0 1.606-2.35 4.794-4.188 6.87-1.838-2.076-4.188-5.264-4.188-6.87 0-2.344 1.879-4.25 4.188-4.25zm8.075 25.994H1.83V11.04h4.07v-.185c1.388 2.043 3.037 3.809 3.345 4.132l.66.694.66-.694c.307-.324 1.955-2.088 3.343-4.13v.182h4.07v16.814zm10.19-11.61v9.79c0 1.004-.805 1.82-1.794 1.82H19.81V16.241l8.359.001z" fill="#A4A1A1"/><path d="M8.01 22.614H6.18v3.42h1.83v-3.42zM8.01 15.775H6.18v3.42h1.83v-3.42zM13.63 22.614h-1.832v3.42h1.831v-3.42zM13.63 15.775h-1.832v3.42h1.831v-3.42zM25.847 18.796h-3.58v1.857h3.58v-1.857z" fill="#fff"/></svg>