<svg width="40" height="40" viewBox="0 0 40 40" fill="none" xmlns="http://www.w3.org/2000/svg"><g clip-path="url(#clip0)"><path d="M40 20a20.236 20.236 0 01-.358 3.785 19.42 19.42 0 01-.39 1.653C36.881 33.841 29.16 40 20 40 10.8 40 3.049 33.786.717 25.326a19.683 19.683 0 01-.532-2.594A20.122 20.122 0 010 20C0 8.954 8.954 0 20 0s20 8.954 20 20z" fill="#C4FFFD"/><path d="M36.837 6.325a4.255 4.255 0 11-8.51 0 4.255 4.255 0 018.51 0z" fill="#FAB510"/><path d="M39.642 23.785c-.048.25-.1.497-.157.744C37.433 33.393 29.488 40 20 40S2.567 33.393.515 24.53c-.057-.248-.11-.496-.157-.745h39.284z" fill="#1EB1E4"/><path d="M33.744 26.075c0-.145-.608-.264-1.358-.264-.75 0-1.36.119-1.36.264 0 .146.61.264 1.36.264.75 0 1.358-.118 1.358-.264zm-2.18 1.411c0-.145-.608-.263-1.359-.263-.75 0-1.359.118-1.359.264 0 .145.609.264 1.36.264.75 0 1.358-.119 1.358-.265zM18.523 25.99c0-.146-.609-.264-1.359-.264s-1.359.118-1.359.263c0 .146.609.264 1.359.264s1.359-.118 1.359-.264zm8.192 10.5c0-.25-1.046-.453-2.337-.453-1.29 0-2.337.203-2.337.453s1.047.168 2.337.168c1.29 0 2.337.083 2.337-.168zm-5.262 1.187c0-.25-1.046-.453-2.337-.453-1.29 0-2.337.202-2.337.453 0 .25 1.046.168 2.337.168 1.29 0 2.337.083 2.337-.168zm-8.713-5.406c0-.25-1.046-.453-2.337-.453-1.29 0-2.337.203-2.337.453 0 .251 1.047.168 2.337.168 1.291 0 2.338.083 2.338-.168z" fill="#96D6D4"/><path d="M37.574 23.75H2.427L8.04 12.62a1.315 1.315 0 011.898-.506l1.943 1.28c.64.421 1.502.209 1.874-.46l4-7.218a1.305 1.305 0 011.398-.654c.394.075.758.326.95.749l2.137 4.711a1.316 1.316 0 002.261.23 1.317 1.317 0 012.219.146l2.846 5.24c.42.773 1.464.924 2.085.302l.013-.012a1.31 1.31 0 011.312-.328c.315.096.598.309.771.629l3.828 7.02z" fill="#748389"/><path d="M10.894 19.036L9.51 23.784H2.4l5.612-11.128a1.315 1.315 0 011.897-.507L8.76 16.2a1.11 1.11 0 001.068 1.415c.74 0 1.274.71 1.067 1.422zm21.422.227l.326.925c.116.327.091.686-.068.994l-1.346 2.603-.895-1.712a1.256 1.256 0 01.041-1.235l.442-.723c.223-.365.244-.819.057-1.204l-1.335-2.737c.42.772 1.464.923 2.085.302l.012-.012a1.31 1.31 0 011.313-.328l-.658 2.374c-.069.248-.06.51.026.753zm-17.844 4.522l.966-2.278a.63.63 0 011.025-.2c.27.27.715.24.946-.064l1.366-1.79a.63.63 0 011.055.082l2.302 4.25h-7.66zm11.064 0V22.02a.46.46 0 01.774-.337l2.258 2.1h-3.032zm-8.169-9.127a1.19 1.19 0 010 1.684l-.869.869a1.19 1.19 0 01-1.683 0l-1.409-1.408a1.191 1.191 0 01-.272-1.26l.593-1.574 4-7.217a1.306 1.306 0 011.398-.654l-2.072 8.434c-.1.405.02.832.314 1.126zm7.643 1.174l.173.902a.888.888 0 01-.235.786l-.75.771a.888.888 0 01-1.5-.826l1.54-6.428c.086-.07.165-.153.235-.25a1.319 1.319 0 011.544-.45l-.88 2.96a5.352 5.352 0 00-.127 2.535z" fill="#2F373B"/></g><defs><clipPath id="clip0"><path fill="#fff" d="M0 0h40v40H0z"/></clipPath></defs></svg>